<?xml version="1.0" encoding="utf-8"?>
<!-- Generator: Adobe Illustrator 27.1.1, SVG Export Plug-In . SVG Version: 6.00 Build 0)  -->
<svg  version="1.1" id="Layer_1" xmlns="http://www.w3.org/2000/svg" xmlns:xlink="http://www.w3.org/1999/xlink" x="0px" y="0px"
	 viewBox="0 0 100 100" style="enable-background:new 0 0 100 100;" xml:space="preserve">
<g>
	<path d="M26.42,55.55c0.61,2.72,1,5.1,1.69,7.38c0.84,2.74,2.72,3.86,6.02,3.87c14.2,0.01,28.4,0.01,42.6,0.01
		c2.78,0,5.57-0.03,8.35,0.02c0.82,0.01,1.81-0.02,2.4,0.42c0.72,0.53,1.51,1.54,1.5,2.33c-0.01,0.79-0.81,1.86-1.57,2.28
		c-0.81,0.45-1.96,0.4-2.96,0.4c-16.52,0.02-33.04,0.02-49.56,0.01c-6.93,0-10.76-3.21-12.17-10.09
		c-3.17-15.53-6.36-31.05-9.54-46.58C12.29,11.28,11.92,11,7.44,11c-1.3,0-2.6,0.06-3.9-0.02c-1.64-0.1-2.94-0.79-2.98-2.63
		c-0.05-1.85,1.2-2.67,2.85-2.75c2.13-0.11,4.28-0.16,6.4,0.04c2.55,0.25,5.07,1.09,6.29,3.52c0.96,1.91,2.32,1.99,4.07,1.99
		c20.23-0.04,40.46-0.02,60.69-0.02c3.99,0,7.98-0.03,11.97,0.01c5.19,0.04,7.51,2.93,6.29,7.93c-2.25,9.18-4.53,18.36-6.88,27.52
		c-1.47,5.73-5.8,8.97-11.82,8.98c-16.8,0.02-33.59,0.01-50.39,0.01C28.93,55.55,27.84,55.55,26.42,55.55z M94.48,16.71
		c-25.52,0-50.62,0-76.02,0c2.28,11.22,4.52,22.23,6.76,33.24c0.78,0.06,1.23,0.13,1.68,0.13c18.18,0.01,36.36,0.02,54.54,0
		c3.08,0,4.94-1.47,5.84-4.54c0.6-2.04,1.05-4.13,1.56-6.2C90.7,31.89,92.55,24.44,94.48,16.71z"/>
	<path d="M24.19,84.8c0.03-5.09,4.66-9.74,9.59-9.63c5.07,0.12,9.48,4.77,9.36,9.85c-0.12,5.01-4.56,9.46-9.45,9.49
		C28.73,94.54,24.16,89.88,24.19,84.8z M33.56,89.07c2.61,0.05,4.46-1.68,4.49-4.19c0.03-2.39-1.68-4.17-4.12-4.27
		c-2.62-0.12-4.51,1.54-4.61,4.05C29.2,87.17,30.98,89.02,33.56,89.07z"/>
	<path d="M87.73,84.84c0,5.1-4.59,9.74-9.56,9.66c-5.04-0.07-9.52-4.74-9.41-9.81c0.1-5.03,4.48-9.46,9.42-9.53
		C83.14,75.1,87.73,79.75,87.73,84.84z M78.32,80.61c-2.6-0.04-4.45,1.71-4.46,4.22c0,2.4,1.71,4.15,4.16,4.24
		c2.61,0.1,4.49-1.58,4.58-4.08C82.69,82.48,80.89,80.64,78.32,80.61z"/>
</g>
</svg>
